<svg width="110" height="33" viewBox="0 0 110 33" fill="none" xmlns="http://www.w3.org/2000/svg">
<path d="M17.3825 25.6577H0.668765C0.491397 25.6577 0.321296 25.5872 0.195878 25.4618C0.0704605 25.3364 0 25.1663 0 24.9889C0 24.8115 0.0704605 24.6414 0.195878 24.516C0.321296 24.3906 0.491397 24.3201 0.668765 24.3201H17.3825C17.5599 24.3201 17.73 24.3906 17.8554 24.516C17.9808 24.6414 18.0513 24.8115 18.0513 24.9889C18.0513 25.1663 17.9808 25.3364 17.8554 25.4618C17.73 25.5872 17.5599 25.6577 17.3825 25.6577V25.6577Z" fill="#036685"/>
<path d="M17.3826 25.6577C17.2053 25.6577 17.0352 25.5872 16.9097 25.4618C16.7843 25.3364 16.7139 25.1663 16.7139 24.9889V20.9255C16.7139 20.7481 16.7843 20.578 16.9097 20.4526C17.0352 20.3272 17.2053 20.2567 17.3826 20.2567C17.56 20.2567 17.7301 20.3272 17.8555 20.4526C17.9809 20.578 18.0514 20.7481 18.0514 20.9255V24.9809C18.0525 25.0694 18.0359 25.1572 18.0028 25.2393C17.9697 25.3214 17.9206 25.396 17.8584 25.459C17.7962 25.5219 17.7221 25.5719 17.6404 25.606C17.5588 25.6401 17.4711 25.6577 17.3826 25.6577V25.6577Z" fill="#036685"/>
<path d="M7.76841 28.5788C7.64519 28.4517 7.47659 28.3786 7.29958 28.3756C7.12256 28.3726 6.95158 28.44 6.82411 28.5628L5.55078 29.788V27.4072C5.55078 27.2298 5.48032 27.0597 5.3549 26.9343C5.22948 26.8089 5.05938 26.7384 4.88201 26.7384C4.70465 26.7384 4.53454 26.8089 4.40913 26.9343C4.28371 27.0597 4.21325 27.2298 4.21325 27.4072V31.3582C4.21196 31.3734 4.21196 31.3886 4.21325 31.4037C4.21325 31.4305 4.21325 31.4572 4.21325 31.484C4.21735 31.5039 4.22271 31.5235 4.2293 31.5428C4.23401 31.5649 4.24119 31.5865 4.2507 31.607C4.25889 31.6283 4.26873 31.6488 4.28012 31.6686C4.28012 31.6873 4.29885 31.706 4.30955 31.722C4.32026 31.7381 4.34433 31.7675 4.36038 31.7889L4.38713 31.821C4.41404 31.8488 4.44361 31.8739 4.47541 31.8959C4.51231 31.9206 4.55177 31.9412 4.59311 31.9574C4.60862 31.9643 4.62474 31.9697 4.64126 31.9735C4.6666 31.9831 4.69251 31.9912 4.71884 31.9976C4.76065 32.0017 4.80276 32.0017 4.84457 31.9976V31.9976C4.88817 32.0015 4.93204 32.0015 4.97564 31.9976H5.02379C5.04925 31.9912 5.07427 31.9831 5.09869 31.9735L5.1522 31.9467L5.21105 31.9146L5.27258 31.8665L5.31002 31.8371L7.71758 29.5178C7.8473 29.3991 7.92529 29.2343 7.9348 29.0587C7.9443 28.8831 7.88456 28.7108 7.76841 28.5788Z" fill="#011A21"/>
<path d="M25.8491 17.0761H4.87128C4.69391 17.0761 4.5238 17.0057 4.39838 16.8802C4.27297 16.7548 4.20251 16.5847 4.20251 16.4074C4.20251 16.23 4.27297 16.0599 4.39838 15.9345C4.5238 15.809 4.69391 15.7386 4.87128 15.7386H25.8491C26.0265 15.7386 26.1966 15.809 26.322 15.9345C26.4474 16.0599 26.5179 16.23 26.5179 16.4074C26.5179 16.5847 26.4474 16.7548 26.322 16.8802C26.1966 17.0057 26.0265 17.0761 25.8491 17.0761V17.0761Z" fill="#024053"/>
<path d="M4.87128 21.6023C4.69391 21.6023 4.5238 21.5319 4.39838 21.4064C4.27297 21.281 4.20251 21.1109 4.20251 20.9336V16.4074C4.20251 16.23 4.27297 16.0599 4.39838 15.9345C4.5238 15.809 4.69391 15.7386 4.87128 15.7386C5.04865 15.7386 5.21875 15.809 5.34417 15.9345C5.46958 16.0599 5.54004 16.23 5.54004 16.4074V20.9255C5.54111 21.014 5.52459 21.1019 5.49145 21.1839C5.45832 21.266 5.40923 21.3407 5.34702 21.4036C5.28482 21.4666 5.21074 21.5166 5.12907 21.5507C5.0474 21.5848 4.95978 21.6023 4.87128 21.6023V21.6023Z" fill="#024053"/>
<path d="M4.87128 21.6023C4.69391 21.6023 4.5238 21.5318 4.39838 21.4064C4.27297 21.281 4.20251 21.1109 4.20251 20.9335C4.20251 20.7562 4.27297 20.5861 4.39838 20.4606C4.5238 20.3352 4.69391 20.2648 4.87128 20.2648H17.3825C17.5599 20.2648 17.73 20.3352 17.8554 20.4606C17.9808 20.5861 18.0513 20.7562 18.0513 20.9335C18.0513 21.1109 17.9808 21.281 17.8554 21.4064C17.73 21.5318 17.5599 21.6023 17.3825 21.6023H4.87128Z" fill="url(#paint0_linear_904_2)"/>
<path d="M0.668765 25.6577C0.491397 25.6577 0.321296 25.5872 0.195878 25.4618C0.0704605 25.3364 0 25.1663 0 24.9889V15.8188C0.000707654 14.7241 0.435725 13.6744 1.20957 12.9C1.98342 12.1257 3.03288 11.69 4.12762 11.6885C4.30499 11.6885 4.47509 11.759 4.60051 11.8844C4.72593 12.0098 4.79639 12.1799 4.79639 12.3573C4.79639 12.5347 4.72593 12.7048 4.60051 12.8302C4.47509 12.9556 4.30499 13.0261 4.12762 13.0261C3.38948 13.0303 2.68296 13.3263 2.16225 13.8495C1.64155 14.3728 1.34893 15.0807 1.34823 15.8188V24.9889C1.34824 25.0777 1.3306 25.1655 1.29632 25.2474C1.26204 25.3292 1.21183 25.4034 1.14859 25.4657C1.08535 25.5279 1.01035 25.5769 0.927977 25.6099C0.845599 25.6429 0.757485 25.6591 0.668765 25.6577V25.6577Z" fill="url(#paint1_linear_904_2)"/>
<path d="M13.1799 13.0261H4.12751C3.95014 13.0261 3.78003 12.9556 3.65461 12.8302C3.52919 12.7048 3.45874 12.5347 3.45874 12.3573C3.45874 12.1799 3.52919 12.0098 3.65461 11.8844C3.78003 11.759 3.95014 11.6885 4.12751 11.6885H13.1799C13.3573 11.6885 13.5274 11.759 13.6528 11.8844C13.7782 12.0098 13.8487 12.1799 13.8487 12.3573C13.8487 12.5347 13.7782 12.7048 13.6528 12.8302C13.5274 12.9556 13.3573 13.0261 13.1799 13.0261V13.0261Z" fill="#058DB6"/>
<path d="M13.18 13.0261C13.0026 13.0261 12.8325 12.9556 12.7071 12.8302C12.5817 12.7048 12.5112 12.5347 12.5112 12.3573V7.6706C12.5112 7.49323 12.5817 7.32313 12.7071 7.19771C12.8325 7.07229 13.0026 7.00183 13.18 7.00183C13.3574 7.00183 13.5275 7.07229 13.6529 7.19771C13.7783 7.32313 13.8488 7.49323 13.8488 7.6706V12.3653C13.8466 12.5413 13.7753 12.7093 13.6501 12.833C13.5249 12.9567 13.356 13.0261 13.18 13.0261V13.0261Z" fill="#058DB6"/>
<path d="M0.668765 8.35271C0.491398 8.35271 0.321296 8.28225 0.195878 8.15684C0.0704605 8.03142 0 7.86132 0 7.68395V3.61518C0 3.43781 0.0704605 3.26771 0.195878 3.14229C0.321296 3.01687 0.491398 2.94641 0.668765 2.94641C0.846133 2.94641 1.01623 3.01687 1.14165 3.14229C1.26707 3.26771 1.33753 3.43781 1.33753 3.61518V7.67058C1.33931 7.75952 1.32333 7.84792 1.29052 7.9306C1.2577 8.01329 1.20873 8.08861 1.14645 8.15213C1.08417 8.21566 1.00984 8.26612 0.927822 8.30056C0.845799 8.33501 0.757726 8.35273 0.668765 8.35271Z" fill="#06B3E8"/>
<path d="M13.921 4.28394H0.668765C0.491397 4.28394 0.321296 4.21348 0.195878 4.08806C0.0704605 3.96265 0 3.79254 0 3.61518C0 3.43781 0.0704605 3.26771 0.195878 3.14229C0.321296 3.01687 0.491397 2.94641 0.668765 2.94641H13.921C14.0984 2.94641 14.2685 3.01687 14.3939 3.14229C14.5193 3.26771 14.5898 3.43781 14.5898 3.61518C14.5898 3.79254 14.5193 3.96265 14.3939 4.08806C14.2685 4.21348 14.0984 4.28394 13.921 4.28394V4.28394Z" fill="#06B3E8"/>
<path d="M17.3826 14.0666C17.2052 14.0666 17.0351 13.9962 16.9097 13.8708C16.7843 13.7453 16.7138 13.5752 16.7138 13.3979V7.07403C16.7131 6.3338 16.4186 5.62416 15.8949 5.10099C15.3713 4.57782 14.6613 4.28394 13.9211 4.28394C13.7437 4.28394 13.5736 4.21348 13.4482 4.08806C13.3228 3.96264 13.2523 3.79254 13.2523 3.61518C13.2523 3.43781 13.3228 3.26771 13.4482 3.14229C13.5736 3.01687 13.7437 2.94641 13.9211 2.94641C15.0154 2.94783 16.0644 3.38316 16.8382 4.15693C17.612 4.9307 18.0473 5.97975 18.0487 7.07403V13.3979C18.0487 13.5748 17.9786 13.7445 17.8538 13.8698C17.7289 13.9952 17.5595 14.0659 17.3826 14.0666V14.0666Z" fill="#06B3E8"/>
<path d="M25.8492 29.7131C25.6718 29.7131 25.5017 29.6427 25.3763 29.5172C25.2509 29.3918 25.1804 29.2217 25.1804 29.0443V16.4074C25.1804 16.23 25.2509 16.0599 25.3763 15.9345C25.5017 15.809 25.6718 15.7386 25.8492 15.7386C26.0266 15.7386 26.1967 15.809 26.3221 15.9345C26.4475 16.0599 26.518 16.23 26.518 16.4074V29.0443C26.518 29.2217 26.4475 29.3918 26.3221 29.5172C26.1967 29.6427 26.0266 29.7131 25.8492 29.7131V29.7131Z" fill="#024053"/>
<path d="M25.849 29.7131H7.27606C7.0987 29.7131 6.9286 29.6426 6.80318 29.5172C6.67776 29.3918 6.6073 29.2217 6.6073 29.0443C6.6073 28.8669 6.67776 28.6969 6.80318 28.5714C6.9286 28.446 7.0987 28.3755 7.27606 28.3755H25.849C26.0264 28.3755 26.1965 28.446 26.3219 28.5714C26.4473 28.6969 26.5178 28.8669 26.5178 29.0443C26.5178 29.2217 26.4473 29.3918 26.3219 29.5172C26.1965 29.6426 26.0264 29.7131 25.849 29.7131V29.7131Z" fill="url(#paint2_linear_904_2)"/>
<path d="M13.18 8.35273H0.668765C0.491397 8.35273 0.321296 8.28227 0.195878 8.15685C0.0704605 8.03143 0 7.86133 0 7.68396C0 7.5066 0.0704605 7.33649 0.195878 7.21108C0.321296 7.08566 0.491397 7.0152 0.668765 7.0152H13.18C13.3574 7.0152 13.5275 7.08566 13.6529 7.21108C13.7783 7.33649 13.8488 7.5066 13.8488 7.68396C13.8488 7.86133 13.7783 8.03143 13.6529 8.15685C13.5275 8.28227 13.3574 8.35273 13.18 8.35273V8.35273Z" fill="url(#paint3_linear_904_2)"/>
<path d="M62.5929 26.2428C62.3328 26.2439 62.0818 26.3387 61.8857 26.5096C61.8057 26.5763 61.7283 26.6457 61.6509 26.7151C61.5037 26.8488 61.3486 26.9735 61.1866 27.0887C60.9885 27.2132 60.7836 27.3263 60.5728 27.4276C60.0349 27.6531 59.4561 27.7649 58.8729 27.7558C57.7308 27.7558 56.9248 27.4489 56.4045 26.8218C55.8841 26.1947 55.6039 25.1806 55.6039 23.8864V10.7837H62.5422C62.6831 10.7897 62.8238 10.7669 62.9557 10.7169C63.0875 10.6668 63.2078 10.5905 63.3093 10.4925C63.4108 10.3945 63.4912 10.2769 63.5458 10.1468C63.6004 10.0168 63.6281 9.87696 63.627 9.73591C63.6259 9.59486 63.5961 9.45551 63.5395 9.32631C63.4829 9.19711 63.4007 9.08076 63.2977 8.98433C63.1948 8.88791 63.0733 8.81339 62.9406 8.76536C62.808 8.71733 62.667 8.69676 62.5262 8.7049H55.5879V3.93086C55.5739 3.64411 55.4501 3.37372 55.2422 3.17573C55.0343 2.97775 54.7582 2.86731 54.4711 2.86731C54.184 2.86731 53.9079 2.97775 53.7 3.17573C53.4921 3.37372 53.3683 3.64411 53.3543 3.93086V23.9665C53.323 25.0646 53.5277 26.1566 53.9547 27.1687C54.3447 28.0511 55.0219 28.7753 55.8761 29.2235C56.7807 29.6754 57.7819 29.8998 58.7929 29.8773C59.659 29.8847 60.5182 29.7234 61.3227 29.4023C61.6818 29.2567 62.0266 29.078 62.3527 28.8686C62.5635 28.7272 62.753 28.5777 62.9078 28.4523L63.204 28.2122C63.3054 28.1366 63.3953 28.0467 63.4708 27.9453C63.5979 27.7649 63.666 27.5495 63.6656 27.3289C63.6664 27.0429 63.554 26.7682 63.3531 26.5648C63.1521 26.3613 62.8789 26.2456 62.5929 26.2428V26.2428Z" fill="#024053"/>
<path d="M109.549 27.3181L101.97 17.1375L109.279 10.2766C109.445 10.1644 109.58 10.0132 109.673 9.83638C109.766 9.65952 109.814 9.46246 109.813 9.2626C109.815 9.12408 109.79 8.98651 109.739 8.85779C109.688 8.72906 109.611 8.61171 109.515 8.51252C109.418 8.41333 109.303 8.33423 109.175 8.27977C109.048 8.2253 108.911 8.19656 108.772 8.19517C108.402 8.22729 108.056 8.39444 107.801 8.66484L96.0034 19.7847V1.14747C96.0034 0.850926 95.8856 0.566527 95.6759 0.356837C95.4662 0.147147 95.1818 0.0293579 94.8852 0.0293579C94.5887 0.0293579 94.3043 0.147147 94.0946 0.356837C93.8849 0.566527 93.7671 0.850926 93.7671 1.14747V28.7645C93.7671 29.061 93.8849 29.3454 94.0946 29.5551C94.3043 29.7648 94.5887 29.8826 94.8852 29.8826C95.1818 29.8826 95.4662 29.7648 95.6759 29.5551C95.8856 29.3454 96.0034 29.061 96.0034 28.7645V22.7896L100.31 18.688L107.841 28.7858C107.958 28.9618 108.117 29.1062 108.303 29.2063C108.489 29.3064 108.697 29.359 108.909 29.3596C109.194 29.361 109.469 29.2498 109.673 29.05C109.878 28.8502 109.995 28.5779 110 28.2921C109.977 27.9223 109.816 27.5745 109.549 27.3181Z" fill="#024053"/>
<path d="M81.7479 8.71289C81.4648 8.71289 81.1933 8.82537 80.9932 9.02555C80.793 9.22573 80.6805 9.49722 80.6805 9.78032L80.6458 12.0433C80.169 11.276 79.559 10.6 78.8445 10.0472C77.3126 8.88311 75.4309 8.27345 73.5074 8.31795C71.7599 8.29148 70.038 8.73972 68.5252 9.61487C67.0435 10.4982 65.8539 11.7973 65.1041 13.3509C64.3035 14.952 63.9059 16.8787 63.9059 19.1043C63.9059 21.3299 64.3088 23.2353 65.1014 24.8364C65.8455 26.387 67.0274 27.6858 68.5012 28.5724C70.0068 29.4511 71.7244 29.9005 73.4674 29.872C74.7876 29.8855 76.0951 29.6124 77.2994 29.0714C78.4564 28.5437 79.4702 27.7467 80.2562 26.7471C80.3843 26.5843 80.5071 26.4162 80.6218 26.2427L80.6378 28.4443C80.6305 28.5931 80.6535 28.7417 80.7053 28.8814C80.7572 29.021 80.8369 29.1486 80.9396 29.2565C81.0423 29.3643 81.1658 29.4502 81.3027 29.5089C81.4396 29.5676 81.587 29.5979 81.7359 29.5979C81.8849 29.5979 82.0323 29.5676 82.1692 29.5089C82.3061 29.4502 82.4296 29.3643 82.5323 29.2565C82.635 29.1486 82.7147 29.021 82.7666 28.8814C82.8184 28.7417 82.8414 28.5931 82.8341 28.4443V9.78032C82.8305 9.49507 82.7144 9.2228 82.5109 9.02284C82.3075 8.82289 82.0332 8.71146 81.7479 8.71289V8.71289ZM79.7012 23.7529C79.1684 24.9617 78.3065 25.9965 77.214 26.7391C76.1296 27.433 74.864 27.7905 73.5768 27.7665C71.3165 27.7665 69.5526 27.0246 68.1863 25.4982C66.82 23.9718 66.1315 21.8262 66.1315 19.0936C66.1315 16.361 66.8226 14.2101 68.1889 12.6891C69.5553 11.168 71.3298 10.4048 73.6168 10.4048C74.8966 10.3776 76.1551 10.7345 77.2301 11.4295C78.3086 12.169 79.1641 13.1897 79.7038 14.3809C80.3549 15.8553 80.6711 17.4557 80.6298 19.0669C80.6663 20.678 80.3493 22.2775 79.7012 23.7529V23.7529Z" fill="#024053"/>
<path d="M91.5415 29.6291C91.6722 29.5783 91.7916 29.5023 91.8929 29.4053C91.9942 29.3083 92.0755 29.1923 92.132 29.064C92.1885 28.9356 92.2191 28.7974 92.2222 28.6572C92.2253 28.517 92.2007 28.3775 92.1499 28.2468C92.0991 28.1161 92.023 27.9967 91.926 27.8953C91.8291 27.794 91.7131 27.7128 91.5848 27.6563C91.4564 27.5998 91.3181 27.5691 91.1779 27.5661C91.0377 27.563 90.8983 27.5876 90.7676 27.6384C90.4741 27.7568 90.1567 27.8035 89.8416 27.7748C89.5265 27.746 89.2227 27.6425 88.9556 27.4729C88.8715 27.3888 88.8056 27.2883 88.762 27.1777C88.7184 27.0671 88.698 26.9486 88.7021 26.8298V1.06743C88.7021 0.784328 88.5896 0.512839 88.3894 0.312658C88.1893 0.112476 87.9178 0 87.6347 0C87.3516 0 87.08 0.112476 86.8799 0.312658C86.6797 0.512839 86.5672 0.784328 86.5672 1.06743V26.8325C86.5621 27.2515 86.6452 27.667 86.8112 28.0518C86.9771 28.4366 87.2223 28.7822 87.5306 29.0661C88.2383 29.629 89.1189 29.9298 90.023 29.9174C90.5426 29.9161 91.0575 29.8183 91.5415 29.6291V29.6291Z" fill="#024053"/>
<path d="M50.2908 27.2915H37.5057C37.1828 27.2915 36.8465 27.2915 36.505 27.3129H36.2995C39.2002 25.1086 41.6366 23.1045 43.5767 21.3539C45.6181 19.4859 47.1579 17.698 48.1559 16.0168C49.1297 14.425 49.6536 12.599 49.6717 10.7331C49.6871 9.5807 49.4796 8.43623 49.0605 7.36265C48.671 6.38655 48.08 5.50358 47.326 4.77145C46.5434 4.0316 45.6117 3.46752 44.5934 3.11695C43.4404 2.72655 42.2294 2.53524 41.0122 2.55121C39.4327 2.51357 37.868 2.86259 36.4542 3.56792C35.1904 4.2231 34.1272 5.20789 33.3774 6.41797C32.7035 7.52897 32.2631 8.76567 32.0831 10.0526C32.0779 10.1103 32.0779 10.1683 32.0831 10.226C32.0827 10.4291 32.1361 10.6287 32.2378 10.8044C32.3395 10.9802 32.4859 11.1259 32.6622 11.2267C32.8183 11.3173 32.994 11.3687 33.1743 11.3766C33.3546 11.3845 33.5342 11.3486 33.6976 11.2721C33.8659 11.1941 34.0132 11.0772 34.1273 10.931C34.2415 10.7849 34.3192 10.6136 34.3541 10.4315C34.598 9.02805 35.2409 7.72452 36.2061 6.67681C37.3882 5.43326 38.9974 4.80881 40.9881 4.80881C42.9042 4.80881 44.4332 5.34253 45.5247 6.40995C46.6161 7.47738 47.1819 8.9291 47.1819 10.7357C47.1764 11.9889 46.8862 13.2244 46.3333 14.3489C45.6295 15.7106 44.7305 16.9621 43.6647 18.0636C42.2396 19.5683 40.7247 20.9853 39.1281 22.3066C37.4256 23.7397 35.3921 25.3888 33.0892 27.2061C32.9348 27.33 32.8099 27.4867 32.7236 27.6649C32.6373 27.8431 32.5917 28.0382 32.5901 28.2362C32.5909 28.5828 32.7288 28.9149 32.9739 29.16C33.219 29.4051 33.5512 29.5431 33.8978 29.5438H50.2881C50.5868 29.5438 50.8732 29.4251 51.0844 29.2139C51.2956 29.0027 51.4142 28.7163 51.4142 28.4176C51.4142 28.119 51.2956 27.8325 51.0844 27.6214C50.8732 27.4102 50.5868 27.2915 50.2881 27.2915H50.2908Z" fill="#024053"/>
<defs>
<linearGradient id="paint0_linear_904_2" x1="4.20251" y1="20.9335" x2="18.0513" y2="20.9335" gradientUnits="userSpaceOnUse">
<stop stop-color="#024053"/>
<stop offset="1" stop-color="#036685"/>
</linearGradient>
<linearGradient id="paint1_linear_904_2" x1="2.39686" y1="25.6577" x2="2.39686" y2="11.6885" gradientUnits="userSpaceOnUse">
<stop stop-color="#036685"/>
<stop offset="1" stop-color="#058DB6"/>
</linearGradient>
<linearGradient id="paint2_linear_904_2" x1="6.6073" y1="29.0443" x2="26.5178" y2="29.0443" gradientUnits="userSpaceOnUse">
<stop stop-color="#011A21"/>
<stop offset="1" stop-color="#024053"/>
</linearGradient>
<linearGradient id="paint3_linear_904_2" x1="0" y1="7.67059" x2="13.8488" y2="7.67059" gradientUnits="userSpaceOnUse">
<stop stop-color="#06B3E8"/>
<stop offset="1" stop-color="#058DB6"/>
</linearGradient>
</defs>
</svg>
