<svg width="130" height="31" viewBox="0 0 130 31" fill="none" xmlns="http://www.w3.org/2000/svg">
<g clip-path="url(#clip0_904_27)">
<path d="M96.1945 1.38383C96.197 1.01712 96.3432 0.66652 96.6021 0.407593C96.861 0.148666 97.2116 0.00247777 97.5771 0H97.7059C98.0739 0 98.4245 0.146188 98.6847 0.405115C98.9436 0.664042 99.0898 1.01712 99.0898 1.38383C99.0898 1.75054 98.9448 2.10239 98.6847 2.36255C98.4245 2.62148 98.0726 2.76767 97.7059 2.76767H97.5771C97.2116 2.76271 96.8623 2.61652 96.6046 2.3576C96.3456 2.09867 96.1982 1.7493 96.1945 1.38383V1.38383ZM97.5783 23.8944C97.7468 23.9043 97.9141 23.8783 98.0702 23.8188C98.2275 23.7593 98.3687 23.6676 98.4877 23.5487C98.6066 23.4298 98.6983 23.2873 98.7578 23.1312C98.8172 22.9739 98.8432 22.8066 98.8333 22.6394V5.90452C98.8333 5.57126 98.7008 5.25287 98.4654 5.01748C98.23 4.78209 97.9104 4.64953 97.5771 4.64953C97.2438 4.64953 96.9254 4.78209 96.6901 5.01748C96.4547 5.25287 96.3221 5.5725 96.3221 5.90452V22.6394C96.3221 22.9726 96.4547 23.291 96.6901 23.5264C96.9254 23.7618 97.2451 23.8944 97.5771 23.8944H97.5783ZM85.6318 23.8944C84.8302 23.8708 84.0311 23.7878 83.242 23.6453C81.541 23.2105 80.0147 22.2665 78.8675 20.9384C77.7203 19.6103 77.0054 17.9638 76.8221 16.2182C76.6226 14.4615 76.666 12.6862 76.9509 10.9406C77.3907 9.14792 78.3546 7.52622 79.7186 6.28238C81.344 5.0596 83.3398 4.43025 85.3728 4.49963C87.4059 4.56901 89.3546 5.33092 90.8933 6.66148C91.6689 7.38003 92.235 8.29557 92.5348 9.30898C92.6017 9.62118 92.5509 9.94824 92.3924 10.2258C92.2338 10.5033 91.9786 10.7126 91.675 10.813C91.3628 10.8836 91.0333 10.8353 90.7558 10.6767C90.477 10.5181 90.2677 10.2592 90.171 9.95444C90.171 9.82559 89.1564 6.92908 84.7559 6.92908H84.6357C83.3597 6.91545 82.1195 7.34906 81.1309 8.15434C80.1423 8.95961 79.4658 10.087 79.2205 11.3383C78.9864 12.8336 78.9455 14.3537 79.1004 15.859C79.2738 17.3085 79.9453 18.6539 81.0008 19.6636C82.0564 20.6733 83.429 21.2853 84.886 21.3943C85.9898 21.5269 87.106 21.2902 88.0612 20.7241C89.0176 20.1567 89.7597 19.2894 90.1723 18.2574C90.2169 18.1063 90.2937 17.9663 90.3953 17.8461C90.4969 17.726 90.622 17.6268 90.762 17.5562C90.9032 17.4856 91.0568 17.4447 91.2142 17.4348C91.3715 17.4249 91.5289 17.4484 91.6763 17.5017C91.8262 17.5488 91.9662 17.6244 92.0851 17.726C92.2053 17.8275 92.3032 17.9527 92.3738 18.0927C92.4444 18.2327 92.4865 18.3863 92.4964 18.5436C92.5063 18.701 92.4853 18.8583 92.4332 19.0057C91.6676 22.1339 88.6509 23.8968 85.6342 23.8968L85.6318 23.8944ZM111.289 22.6394C110.899 22.9355 110.478 23.1882 110.034 23.3963C109.221 23.659 108.37 23.7841 107.517 23.7655C106.61 23.8076 105.705 23.6367 104.878 23.2675C104.111 22.8649 103.461 22.2739 102.986 21.5479C102.559 20.6435 102.344 19.6524 102.359 18.6514V1.25499C102.385 0.939074 102.53 0.64422 102.763 0.429893C102.996 0.215566 103.302 0.0953941 103.619 0.0953941C103.936 0.0953941 104.241 0.214327 104.474 0.429893C104.708 0.64422 104.852 0.939074 104.878 1.25499V4.77962H110.533C110.691 4.76599 110.848 4.78457 110.997 4.83537C111.145 4.88616 111.283 4.96669 111.398 5.07323C111.515 5.17978 111.607 5.30862 111.671 5.45233C111.734 5.59604 111.767 5.75214 111.767 5.90948C111.767 6.06682 111.734 6.22292 111.671 6.36663C111.607 6.51034 111.515 6.64042 111.398 6.74573C111.283 6.85227 111.145 6.9328 110.997 6.98359C110.848 7.03439 110.689 7.05297 110.533 7.03934H104.878V18.359C104.836 19.2201 105.105 20.0687 105.635 20.7488C105.916 21.0202 106.251 21.227 106.618 21.3584C106.986 21.4885 107.378 21.5392 107.766 21.5058C108.321 21.4922 108.873 21.4079 109.407 21.2568C109.527 21.2568 109.778 20.9991 109.906 20.8789C110.039 20.7773 110.193 20.7055 110.356 20.6695C110.52 20.6336 110.689 20.6336 110.853 20.6695C111.017 20.7055 111.17 20.7773 111.304 20.8789C111.438 20.9805 111.548 21.1106 111.625 21.258C111.761 21.486 111.803 21.7598 111.741 22.0187C111.678 22.2776 111.516 22.5019 111.29 22.6419L111.289 22.6394ZM129.15 4.77838C128.85 4.64458 128.51 4.63591 128.204 4.7536C127.896 4.87129 127.65 5.10544 127.516 5.40525L121.73 19.4926L115.568 5.52542C115.51 5.36437 115.42 5.2157 115.302 5.09182C115.184 4.96669 115.042 4.86758 114.883 4.80068C114.726 4.73378 114.556 4.69909 114.384 4.70157C114.213 4.70281 114.042 4.73997 113.886 4.81059C113.73 4.88121 113.588 4.98279 113.473 5.10916C113.358 5.23553 113.27 5.38543 113.214 5.54772C113.16 5.71002 113.137 5.88222 113.152 6.05319C113.167 6.22416 113.217 6.39017 113.297 6.54131L120.345 22.7608L118.455 26.9123C118.335 27.2901 117.2 29.3021 114.053 27.9183C113.904 27.8526 113.743 27.8167 113.581 27.8117C113.419 27.8068 113.256 27.8365 113.104 27.8947C112.953 27.953 112.813 28.0409 112.695 28.1536C112.578 28.2664 112.483 28.4002 112.416 28.5501C112.351 28.6988 112.315 28.8598 112.311 29.0221C112.306 29.1844 112.336 29.3467 112.393 29.4991C112.452 29.6515 112.54 29.7902 112.653 29.9079C112.765 30.0256 112.9 30.121 113.05 30.1867C113.99 30.6314 115.024 30.847 116.066 30.8135C116.755 30.821 117.438 30.6921 118.077 30.4357C119.269 29.8906 120.244 28.9614 120.845 27.7969L129.903 6.41123C129.97 6.25513 130.002 6.08664 130 5.91691C129.997 5.74718 129.959 5.57994 129.887 5.42631C129.817 5.27269 129.713 5.13518 129.586 5.02368C129.459 4.91218 129.309 4.82793 129.146 4.77838H129.15Z" fill="#1A1A1A"/>
<path d="M50.4078 1.75304C50.4127 1.38756 50.5589 1.0382 50.8178 0.779272C51.0768 0.520346 51.4261 0.372918 51.7916 0.369202H51.9204C52.2859 0.374157 52.6353 0.520346 52.8942 0.779272C53.1531 1.0382 53.3006 1.38756 53.3043 1.75304C53.2758 2.09992 53.1172 2.42203 52.8608 2.65742C52.6043 2.89157 52.2686 3.02041 51.9204 3.0167H51.7916C51.6169 3.02785 51.4422 3.00431 51.2762 2.94732C51.1115 2.88909 50.9591 2.79865 50.8302 2.68096C50.7014 2.56327 50.5973 2.41956 50.5242 2.26098C50.4511 2.10116 50.4115 1.92896 50.4078 1.75427V1.75304ZM51.7916 23.8944C51.9613 23.9092 52.1335 23.8882 52.2946 23.8312C52.4556 23.7742 52.6018 23.6825 52.7245 23.5636C52.8471 23.4447 52.9425 23.2997 53.0032 23.1411C53.0652 22.9813 53.0912 22.8104 53.08 22.6406V5.90454C53.08 5.57128 52.9475 5.25288 52.7121 5.0175C52.4767 4.78211 52.1571 4.64955 51.8251 4.64955C51.493 4.64955 51.1734 4.78211 50.938 5.0175C50.7026 5.25288 50.5701 5.57252 50.5701 5.90454V22.6394C50.5701 22.9665 50.6977 23.2799 50.9256 23.5153C51.1536 23.7507 51.4645 23.8857 51.7904 23.8944H51.7916ZM72.927 8.92989C72.2022 7.56216 71.1653 6.38522 69.9016 5.49199C68.5958 4.73751 67.1116 4.3485 65.6039 4.36584C64.484 4.37947 63.3752 4.59132 62.3296 4.99272C61.3236 5.35571 60.4502 6.01108 59.8196 6.87458C59.49 7.14714 59.2311 7.49527 59.0626 7.88923L58.9338 5.74844C58.9474 5.59234 58.9288 5.43376 58.878 5.2851C58.8272 5.13643 58.7467 4.99891 58.6402 4.8837C58.5336 4.76724 58.4048 4.67556 58.2611 4.61238C58.1173 4.5492 57.9612 4.51575 57.8039 4.51575C57.6466 4.51575 57.4905 4.54796 57.3468 4.61238C57.2031 4.6768 57.073 4.76848 56.9677 4.8837C56.8611 5.00015 56.7806 5.13643 56.7298 5.2851C56.679 5.43376 56.6604 5.59234 56.674 5.74844V29.6453C56.674 29.9785 56.8054 30.2994 57.0408 30.536C57.2761 30.7727 57.5945 30.9065 57.929 30.9089C58.0975 30.9189 58.266 30.8928 58.4246 30.8334C58.5819 30.7739 58.7256 30.681 58.8446 30.5608C58.9635 30.4419 59.0564 30.2982 59.1171 30.1408C59.1766 29.9835 59.2026 29.8138 59.1927 29.6453V20.6287C59.687 21.377 60.3275 22.0162 61.0746 22.5105C62.4027 23.4335 63.9872 23.9179 65.6039 23.8944C67.1463 23.9241 68.6689 23.5314 70.0044 22.7596C71.3201 21.9469 72.3695 20.7674 73.0211 19.365C73.8091 17.7619 74.1981 15.9928 74.1559 14.2075C74.1002 12.3839 73.6827 10.59 72.927 8.92989V8.92989ZM69.9016 19.7169C69.3218 20.3722 68.6045 20.8926 67.8005 21.2407C66.9964 21.5888 66.1267 21.7548 65.2508 21.7288C64.1383 21.7722 63.0407 21.4724 62.1053 20.869C61.1712 20.1951 60.4328 19.2833 59.9645 18.2302C59.4417 16.9517 59.1877 15.5802 59.2162 14.1989C59.1605 12.8076 59.4553 11.4238 60.076 10.1762C60.5431 9.08723 61.331 8.1655 62.337 7.53739C63.5697 6.80149 65.0179 6.51159 66.4389 6.71601C67.8599 6.92042 69.167 7.608 70.142 8.66353C71.3313 10.2766 71.9507 12.239 71.9037 14.2435C71.8566 16.2467 71.1467 18.1782 69.8843 19.7342L69.9016 19.7169V19.7169ZM40.1882 23.6454C37.4205 23.6454 34.026 22.5105 32.2631 19.8717C32.0958 19.6054 32.0413 19.2833 32.1107 18.976C32.1813 18.6688 32.3696 18.4024 32.6372 18.2352C32.9036 18.0679 33.2257 18.0134 33.5329 18.0828C33.8402 18.1534 34.1065 18.3417 34.2738 18.6093C35.6576 20.7501 38.6743 21.5058 41.0641 21.2568C41.7566 21.1775 42.4269 20.9582 43.0327 20.6126C43.6385 20.2669 44.1675 19.8023 44.5887 19.2461C44.7795 18.9995 44.9034 18.7072 44.9468 18.3987C44.9901 18.0902 44.953 17.7743 44.8377 17.4844C44.3397 15.7648 41.6922 15.2148 39.5601 14.8369C39.3024 14.8369 39.0534 14.7167 38.7003 14.7167L38.2023 14.5879C36.1916 14.21 33.5441 13.8309 32.5381 11.0633C31.7811 8.93113 33.165 6.28488 34.9279 5.2789C36.0169 4.63468 37.2285 4.22461 38.486 4.07718C39.7422 3.92976 41.017 4.04621 42.2262 4.41911C43.2049 4.65079 44.1204 5.09802 44.9034 5.72862C45.6876 6.35921 46.3195 7.15705 46.7555 8.06391C46.8311 8.19647 46.8794 8.3439 46.8955 8.49628C46.9129 8.64867 46.898 8.80229 46.8534 8.94848C46.8088 9.09467 46.7357 9.23094 46.6366 9.3474C46.5375 9.46385 46.4161 9.55925 46.2798 9.62862C46.1435 9.69676 45.9936 9.73641 45.8412 9.74508C45.6889 9.75375 45.5352 9.73145 45.3915 9.67942C45.2478 9.62738 45.1165 9.54562 45.005 9.44155C44.8935 9.33625 44.8043 9.20988 44.7436 9.06989C44.4525 8.48142 44.0275 7.96976 43.501 7.57703C42.9757 7.18431 42.3637 6.92166 41.717 6.80892C39.902 6.29726 37.9595 6.52274 36.3105 7.4358C35.4507 8.06267 34.5488 9.57659 34.9267 10.5813C35.4334 11.9652 36.6884 12.2142 38.7003 12.592L40.0841 12.8411C42.474 13.2189 46.2464 13.847 47.2523 17.1387C47.432 17.7545 47.4691 18.4024 47.3601 19.033C47.2511 19.6648 46.9996 20.2632 46.6255 20.7823C46.0184 21.6384 45.2317 22.352 44.3199 22.8735C43.4081 23.3951 42.3947 23.711 41.3478 23.799C40.9724 23.685 40.5797 23.633 40.187 23.6441L40.1882 23.6454Z" fill="#43BDC5"/>
<path d="M5.25779 23.4545C5.21195 23.4545 5.16488 23.4508 5.11904 23.4434C4.95426 23.4174 4.7994 23.3455 4.67428 23.2365C4.54791 23.1262 4.45499 22.9838 4.40668 22.824C4.35836 22.6641 4.35464 22.4956 4.39801 22.3346L5.25903 19.1395C3.97679 17.7024 3.22726 15.8689 3.1393 13.9362C3.08603 12.763 3.26195 11.6071 3.66211 10.502C4.06351 9.39692 4.66932 8.39838 5.46345 7.53116C6.25757 6.66518 7.2016 5.97512 8.26704 5.47957C9.33372 4.98402 10.4685 4.70898 11.643 4.66191C11.7149 4.65819 11.7842 4.6681 11.8511 4.68668C12.9277 4.65819 13.9894 4.82668 15.0078 5.18719C16.103 5.57496 17.0953 6.16467 17.9601 6.94145C18.8236 7.71823 19.5149 8.64368 20.0154 9.69178C20.5159 10.7399 20.8008 11.8598 20.8615 13.0194C20.9222 14.179 20.7575 15.3225 20.3697 16.4177C19.9819 17.5129 19.3922 18.5064 18.6154 19.3699C17.8387 20.2334 16.9132 20.9247 15.8651 21.4253C14.817 21.9258 13.6971 22.2107 12.5375 22.2714C11.2082 22.3296 9.86768 22.098 8.63871 21.5975C8.49871 21.6829 8.31536 21.7957 8.14439 21.901C7.36885 22.3804 6.30589 23.037 5.63813 23.3653C5.62698 23.3703 5.61707 23.3753 5.60592 23.3802C5.49566 23.4273 5.37672 23.4508 5.25779 23.4508V23.4545ZM11.4733 5.97388C10.5503 6.03831 9.65583 6.26874 8.81339 6.66023C7.90405 7.08269 7.09877 7.67239 6.41987 8.41077C5.7422 9.15038 5.22434 10.0027 4.88241 10.9468C4.54048 11.8896 4.38933 12.8757 4.43641 13.878C4.51446 15.6174 5.22806 17.2614 6.44464 18.5077C6.60446 18.6724 6.6664 18.9091 6.60694 19.1308L5.90325 21.7449C6.42978 21.4376 7.01701 21.0759 7.46301 20.8009C7.6922 20.6596 7.88918 20.5382 8.03042 20.4527C8.30916 20.2855 8.50986 20.1641 8.8072 20.2632C8.82826 20.2706 8.84808 20.278 8.8679 20.2867C9.99405 20.7934 11.2404 21.0325 12.4755 20.978C13.458 20.926 14.4131 20.6832 15.3064 20.257C16.1996 19.8308 16.9888 19.2411 17.6504 18.5052C18.3119 17.7693 18.8161 16.9231 19.1457 15.989C19.4752 15.0549 19.6165 14.0811 19.5644 13.0925C19.5124 12.1039 19.2696 11.1499 18.8434 10.2555C18.4172 9.36223 17.8275 8.57306 17.0916 7.9115C16.3557 7.2487 15.5096 6.74571 14.5754 6.41617C13.6426 6.08662 12.6676 5.94539 11.6789 5.99742C11.6096 6.00114 11.5402 5.99371 11.4745 5.97512L11.4733 5.97388Z" fill="#1A1A1A"/>
<path d="M7.3503 4.42032C7.31561 4.58633 7.24747 4.7449 7.15084 4.8849C7.05421 5.02489 6.93032 5.14383 6.78661 5.2355C6.64166 5.33214 6.47813 5.39904 6.30716 5.43249C6.1362 5.46594 5.95903 5.4647 5.78807 5.43001C5.68772 5.40895 5.59232 5.37674 5.49941 5.33337C4.38937 6.17829 3.45029 7.2363 2.74537 8.44793C1.80134 10.0684 1.30207 11.9143 1.29835 13.7888C1.30207 15.6607 1.81125 17.5017 2.77138 19.111C2.95474 19.4195 2.85439 19.8184 2.54591 20.0018C2.44184 20.0637 2.32663 20.0934 2.21389 20.0934C1.99213 20.0934 1.77656 19.9807 1.65515 19.7763C0.576081 17.9663 0.00371665 15.8949 0 13.7875C0.00371665 11.6814 0.564931 9.61 1.62294 7.79132C2.42821 6.40873 3.5048 5.20453 4.77838 4.24811C4.76971 4.12546 4.77838 4.00157 4.80316 3.88016C4.83908 3.71415 4.90722 3.55681 5.00509 3.41682C5.10297 3.27683 5.22562 3.15789 5.36933 3.06622C5.65799 2.88038 6.00859 2.81596 6.34557 2.88658C6.6813 2.95719 6.97616 3.15789 7.16571 3.44408C7.25986 3.58531 7.32429 3.74512 7.3565 3.91237C7.38871 4.07962 7.38623 4.25183 7.35154 4.41784L7.3503 4.42032ZM24.2859 10.1341C24.2351 9.96928 24.1521 9.8169 24.0418 9.68434C23.9315 9.55178 23.7965 9.44276 23.6441 9.36347C23.5252 9.30028 23.3963 9.25816 23.2638 9.23462C22.4461 7.28957 21.123 5.56752 19.4381 4.28652C17.3506 2.69951 14.7588 1.82733 12.1386 1.82733C12.1237 1.82733 12.1101 1.82733 12.0952 1.82733C11.0261 1.82733 9.96187 1.96733 8.92988 2.24484C8.58299 2.33775 8.37734 2.69455 8.47149 3.04144C8.56441 3.38833 8.92121 3.59398 9.2681 3.49983C10.1898 3.25205 11.1413 3.12692 12.0989 3.12692C12.1113 3.12692 12.125 3.12692 12.1374 3.12692C14.4764 3.12692 16.7894 3.90618 18.6526 5.32222C20.1418 6.45457 21.3138 7.9722 22.0447 9.68805C21.9914 9.75371 21.9444 9.82557 21.9035 9.90114C21.7474 10.1985 21.7152 10.5454 21.8118 10.8662C21.8614 11.031 21.9419 11.1846 22.0509 11.3172C22.1599 11.4497 22.295 11.56 22.4473 11.6393C22.5997 11.7198 22.7657 11.7681 22.9379 11.783C23.1089 11.7979 23.2824 11.7781 23.4459 11.7248C23.7668 11.6232 24.0356 11.4002 24.1929 11.1029C24.3503 10.8055 24.385 10.4574 24.2883 10.1353L24.2859 10.1341ZM23.5326 13.1371H23.5301C23.1721 13.1371 22.8822 13.4258 22.881 13.7838C22.8748 15.1986 22.5935 16.5775 22.046 17.882C21.4984 19.1866 20.7117 20.3524 19.7057 21.3484C18.701 22.3445 17.5265 23.12 16.217 23.654C14.9248 24.1818 13.5633 24.4481 12.1646 24.4481C12.1361 24.4481 12.1064 24.4481 12.0779 24.4481C11.6195 24.4481 11.1611 24.4184 10.7077 24.3614C10.6693 24.2524 10.6185 24.1483 10.5516 24.0529C10.4537 23.9117 10.3286 23.7915 10.1849 23.6998C10.0399 23.6082 9.87887 23.545 9.71038 23.5165C9.3734 23.4508 9.02403 23.5202 8.73785 23.7098C8.45167 23.8993 8.25097 24.1942 8.18035 24.5311L8.1977 24.5348C8.16673 24.7021 8.16797 24.8743 8.20265 25.0403C8.23858 25.2076 8.30672 25.3674 8.40459 25.5074C8.50246 25.6486 8.62635 25.7688 8.7713 25.8605C8.91625 25.9521 9.07731 26.0153 9.2458 26.0438C9.58277 26.1095 9.93214 26.0401 10.2196 25.8505C10.31 25.7898 10.3918 25.7192 10.4636 25.6399C10.9976 25.7118 11.5365 25.749 12.0742 25.749C12.1064 25.749 12.1386 25.749 12.1708 25.749C13.7343 25.749 15.2606 25.4491 16.7088 24.8582C18.1769 24.2586 19.4938 23.3889 20.6212 22.2726C21.7486 21.1564 22.6319 19.8481 23.2452 18.3863C23.8597 16.9231 24.1744 15.377 24.1818 13.7912C24.183 13.432 23.8944 13.1396 23.5351 13.1383L23.5326 13.1371Z" fill="#43BDC5"/>
</g>
<defs>
<clipPath id="clip0_904_27">
<rect width="130" height="30.911" fill="white"/>
</clipPath>
</defs>
</svg>
